<?xml version="1.0" encoding="UTF-8"?>
<!-- Generated by Pixelmator Pro 4.0 -->
<svg width="1600" height="900" viewBox="0 0 1600 900" xmlns="http://www.w3.org/2000/svg">
    <linearGradient id="linearGradient1" x1="0" y1="0" x2="1600" y2="900" gradientUnits="userSpaceOnUse">
        <stop offset="1e-05" stop-color="#0b1220" stop-opacity="1"/>
        <stop offset="1" stop-color="#101827" stop-opacity="1"/>
    </linearGradient>
    <path id="path1" fill="url(#linearGradient1)" stroke="none" d="M 36 0 L 1564 0 C 1583.882202 0 1600 16.117737 1600 36 L 1600 864 C 1600 883.882263 1583.882202 900 1564 900 L 36 900 C 16.117748 900 0 883.882263 0 864 L 0 36 C 0 16.117737 16.117748 0 36 0 Z"/>
    <path id="path2" fill="#1d4ed8" fill-opacity="0.1" stroke="none" d="M 1420 160 C 1420 237.319885 1357.319824 300 1280 300 C 1202.680176 300 1140 237.319885 1140 160 C 1140 82.680115 1202.680176 20 1280 20 C 1357.319824 20 1420 82.680115 1420 160 Z"/>
    <path id="path3" fill="#7c3aed" fill-opacity="0.1" stroke="none" d="M 1510 760 C 1510 853.888428 1433.888428 930 1340 930 C 1246.111572 930 1170 853.888428 1170 760 C 1170 666.111572 1246.111572 590 1340 590 C 1433.888428 590 1510 666.111572 1510 760 Z"/>
    <path id="path4" fill="#f59e0b" fill-opacity="0.08" stroke="none" d="M 400 740 C 400 822.842712 332.842712 890 250 890 C 167.157288 890 100 822.842712 100 740 C 100 657.157288 167.157288 590 250 590 C 332.842712 590 400 657.157288 400 740 Z"/>
    <g id="g1" opacity="0.18">
        <path id="path5" fill="none" stroke="#64748b" d="M 90 120 L 1510 120"/>
        <path id="path6" fill="none" stroke="#64748b" d="M 90 780 L 1510 780"/>
    </g>
    <text id="DeepPaperNote" xml:space="preserve" x="522.422656" y="135" font-family="Impact" font-size="80" font-weight="800" fill="#f8fafc" letter-spacing="3.2">DeepPaperNote</text>
    <text id="Turn-hard-dense-papers" xml:space="preserve" x="197" y="178" font-family="Helvetica" font-size="28" font-style="italic" font-weight="300" fill="#cbd5e1">Turn hard, dense papers into high-quality Obsidian notes you can actually understand and keep</text>
    <g id="g2">
        <linearGradient id="linearGradient2" x1="170" y1="250" x2="610" y2="610" gradientUnits="userSpaceOnUse">
            <stop offset="1e-05" stop-color="#0f172a" stop-opacity="1"/>
            <stop offset="1" stop-color="#111c31" stop-opacity="1"/>
        </linearGradient>
        <path id="path8" fill="url(#linearGradient2)" stroke="#334155" stroke-width="2" d="M 202 250 L 578 250 C 595.673096 250 610 264.326904 610 282 L 610 578 C 610 595.673096 595.673096 610 578 610 L 202 610 C 184.326889 610 170 595.673096 170 578 L 170 282 C 170 264.326904 184.326889 250 202 250 Z"/>
        <linearGradient id="linearGradient3" x1="990" y1="250" x2="1430" y2="610" gradientUnits="userSpaceOnUse">
            <stop offset="1e-05" stop-color="#0f172a" stop-opacity="1"/>
            <stop offset="1" stop-color="#12201a" stop-opacity="1"/>
        </linearGradient>
        <path id="path9" fill="url(#linearGradient3)" stroke="#334155" stroke-width="2" d="M 1022 250 L 1398 250 C 1415.673096 250 1430 264.326904 1430 282 L 1430 578 C 1430 595.673096 1415.673096 610 1398 610 L 1022 610 C 1004.326904 610 990 595.673096 990 578 L 990 282 C 990 264.326904 1004.326904 250 1022 250 Z"/>
    </g>
    <g id="g3">
        <path id="path10" fill="#172554" stroke="#60a5fa" stroke-width="2" d="M 287 338 C 287 362.300537 267.300537 382 243 382 C 218.699463 382 199 362.300537 199 338 C 199 313.699463 218.699463 294 243 294 C 267.300537 294 287 313.699463 287 338 Z"/>
        <path id="path11" fill="#e0f2fe" fill-opacity="0.12" stroke="#e0f2fe" stroke-width="2.5" stroke-linejoin="round" d="M 223 314 L 254 314 L 267 327 L 267 362 L 223 362 L 223 314 Z"/>
        <path id="path12" fill="none" stroke="#e0f2fe" stroke-width="2.5" stroke-linejoin="round" d="M 254 314 L 254 327 L 267 327"/>
        <path id="path13" fill="none" stroke="#bae6fd" stroke-width="2.5" stroke-linecap="round" d="M 233 338 L 257 338"/>
        <path id="path14" fill="none" stroke="#bae6fd" stroke-width="2.5" stroke-linecap="round" d="M 233 348 L 257 348"/>
        <path id="path15" fill="none" stroke="#bae6fd" stroke-width="2.5" stroke-linecap="round" d="M 233 358 L 250 358"/>
        <text id="Paper-Input" xml:space="preserve" x="303" y="335" font-family="Helvetica" font-size="30" fill="#f8fafc">Paper Input</text>
        <text id="Scripts-handle-the-tedious" xml:space="preserve" x="303" y="368" font-family="Helvetica" font-size="18" fill="#94a3b8">Scripts handle the tedious extraction</text>
    </g>
    <g id="g4">
        <path id="path16" fill="#0f2740" stroke="#1d4ed8" d="M 205.561401 418 L 313.438599 418 C 323.137512 418 331 424.268005 331 432 L 331 446 C 331 453.731995 323.137512 460 313.438599 460 L 205.561401 460 C 195.862518 460 188 453.731995 188 446 L 188 432 C 188 424.268005 195.862518 418 205.561401 418 Z"/>
        <text id="PDF-Parsing" xml:space="preserve" x="206" y="447" font-family="Helvetica" font-size="18" fill="#dbeafe">PDF Parsing</text>
        <path id="path17" fill="#22163f" stroke="#7c3aed" d="M 353.492523 418 L 440.507477 418 C 446.854614 418 452 424.268005 452 432 L 452 446 C 452 453.731995 446.854614 460 440.507477 460 L 353.492523 460 C 347.145386 460 342 453.731995 342 446 L 342 432 C 342 424.268005 347.145386 418 353.492523 418 Z"/>
        <text id="Metadata" xml:space="preserve" x="358" y="446" font-family="Helvetica" font-size="18" fill="#e9d5ff">Metadata</text>
        <path id="path18" fill="#402512" stroke="#f59e0b" d="M 482 418 L 574 418 C 581.731995 418 588 424.268005 588 432 L 588 446 C 588 453.731995 581.731995 460 574 460 L 482 460 C 474.268005 460 468 453.731995 468 446 L 468 432 C 468 424.268005 474.268005 418 482 418 Z"/>
        <text id="Zotero-first" xml:space="preserve" x="483" y="447" font-family="Helvetica" font-size="18" fill="#fef3c7">Zotero-first</text>
        <path id="path19" fill="#111827" stroke="#334155" d="M 202 480 L 334 480 C 341.731995 480 348 486.268005 348 494 L 348 508 C 348 515.731995 341.731995 522 334 522 L 202 522 C 194.268021 522 188 515.731995 188 508 L 188 494 C 188 486.268005 194.268021 480 202 480 Z"/>
        <text id="Figure-Assets" xml:space="preserve" x="214.472656" y="508" font-family="Helvetica" font-size="18" fill="#e2e8f0">Figure Assets</text>
        <path id="path20" fill="#111827" stroke="#334155" d="M 378 480 L 546 480 C 553.731995 480 560 486.268005 560 494 L 560 508 C 560 515.731995 553.731995 522 546 522 L 378 522 C 370.268005 522 364 515.731995 364 508 L 364 494 C 364 486.268005 370.268005 480 378 480 Z"/>
        <text id="Evidence-Bundle" xml:space="preserve" x="393" y="509" font-family="Helvetica" font-size="18" fill="#e2e8f0">Evidence Bundle</text>
        <text id="Resolve-Extract-Verify" xml:space="preserve" x="266" y="572" font-family="Helvetica" font-size="22" fill="#cbd5e1">Resolve. Extract. Verify.</text>
    </g>
    <g id="g5">
        <path id="path21" fill="#0f2a1c" stroke="#34d399" stroke-width="2" d="M 1118 338 C 1118 362.300537 1098.300537 382 1074 382 C 1049.699463 382 1030 362.300537 1030 338 C 1030 313.699463 1049.699463 294 1074 294 C 1098.300537 294 1118 313.699463 1118 338 Z"/>
        <path id="path22" fill="#dcfce7" fill-opacity="0.1" stroke="#dcfce7" stroke-width="2.5" d="M 1058 313 L 1090 313 C 1094.418335 313 1098 316.581726 1098 321 L 1098 355 C 1098 359.418274 1094.418335 363 1090 363 L 1058 363 C 1053.581665 363 1050 359.418274 1050 355 L 1050 321 C 1050 316.581726 1053.581665 313 1058 313 Z"/>
        <path id="path23" fill="none" stroke="#bbf7d0" stroke-width="2.5" stroke-linecap="round" d="M 1062 327 L 1086 327"/>
        <path id="path24" fill="none" stroke="#bbf7d0" stroke-width="2.5" stroke-linecap="round" d="M 1062 339 L 1086 339"/>
        <path id="path25" fill="none" stroke="#bbf7d0" stroke-width="2.5" stroke-linecap="round" d="M 1062 351 L 1078 351"/>
        <text id="Research-Note" xml:space="preserve" x="1134" y="335" font-family="Helvetica" font-size="30" fill="#f8fafc">Research Note</text>
        <text id="Structured-assets-for-your" xml:space="preserve"><tspan x="1134" y="357" font-family="Helvetica" font-size="18" fill="#94a3b8" xml:space="preserve">Structured assets for your</tspan><tspan x="1134" y="379" font-family="Helvetica" font-size="18" fill="#94a3b8" xml:space="preserve">knowledge base</tspan></text>
    </g>
    <g id="g6">
        <path id="path26" fill="#0c2218" stroke="#22c55e" d="M 1039.666626 418 L 1216.333374 418 C 1226.090332 418 1234 424.268005 1234 432 L 1234 446 C 1234 453.731995 1226.090332 460 1216.333374 460 L 1039.666626 460 C 1029.909668 460 1022 453.731995 1022 446 L 1022 432 C 1022 424.268005 1029.909668 418 1039.666626 418 Z"/>
        <text id="Mechanism-Breakdown" xml:space="preserve" x="1032" y="446" font-family="Helvetica" font-size="18" fill="#dcfce7">Mechanism Breakdown</text>
        <path id="path27" fill="#11223a" stroke="#38bdf8" d="M 1265.25 418 L 1387.75 418 C 1394.515381 418 1400 424.268005 1400 432 L 1400 446 C 1400 453.731995 1394.515381 460 1387.75 460 L 1265.25 460 C 1258.484497 460 1253 453.731995 1253 446 L 1253 432 C 1253 424.268005 1258.484497 418 1265.25 418 Z"/>
        <text id="Placeholder-First" xml:space="preserve" x="1257" y="446" font-family="Helvetica" font-size="18" fill="#dbeafe">Placeholder-First</text>
        <path id="path28" fill="#23163a" stroke="#a78bfa" d="M 1036 480 L 1176 480 C 1183.731934 480 1190 486.268005 1190 494 L 1190 508 C 1190 515.731995 1183.731934 522 1176 522 L 1036 522 C 1028.268066 522 1022 515.731995 1022 508 L 1022 494 C 1022 486.268005 1028.268066 480 1036 480 Z"/>
        <text id="Honest-Limitations" xml:space="preserve" x="1029" y="508" font-family="Helvetica" font-size="18" fill="#e9d5ff">Honest Limitations</text>
        <path id="path29" fill="#3d280f" stroke="#f59e0b" d="M 1225.833374 480 L 1384.166626 480 C 1392.911133 480 1400 486.268005 1400 494 L 1400 508 C 1400 515.731995 1392.911133 522 1384.166626 522 L 1225.833374 522 C 1217.088867 522 1210 515.731995 1210 508 L 1210 494 C 1210 486.268005 1217.088867 480 1225.833374 480 Z"/>
        <text id="Obsidian-Native" xml:space="preserve" x="1238" y="508" font-family="Helvetica" font-size="18" fill="#fef3c7">Obsidian-Native</text>
        <text id="Explain-Structure-Save" xml:space="preserve" x="1087" y="572" font-family="Helvetica" font-size="22" fill="#d1fae5">Explain. Structure. Save.</text>
    </g>
    <g id="g7">
        <linearGradient id="linearGradient4" x1="628" y1="428" x2="920" y2="428" gradientUnits="userSpaceOnUse">
            <stop offset="1e-05" stop-color="#38bdf8" stop-opacity="1"/>
            <stop offset="0.5" stop-color="#a78bfa" stop-opacity="1"/>
            <stop offset="1" stop-color="#f59e0b" stop-opacity="1"/>
        </linearGradient>
        <path id="path30" fill="none" stroke="url(#linearGradient4)" stroke-width="22" stroke-linecap="round" d="M 628 428 L 920 428"/>
        <path id="path31" fill="none" stroke="#f8fafc" stroke-width="18" stroke-linecap="round" stroke-linejoin="round" d="M 896 390 L 972 428 L 896 466"/>
        <path id="path32" fill="#0f172a" stroke="#64748b" stroke-width="2" d="M 856 428 C 856 458.927948 830.927917 484 800 484 C 769.072083 484 744 458.927948 744 428 C 744 397.072052 769.072083 372 800 372 C 830.927917 372 856 397.072052 856 428 Z"/>
        <path id="path33" fill="none" stroke="#cbd5e1" stroke-width="3" stroke-linecap="round" d="M 783 416 L 800 404 L 819 414"/>
        <path id="path34" fill="none" stroke="#cbd5e1" stroke-width="3" stroke-linecap="round" d="M 783 440 L 800 452 L 819 442"/>
        <path id="path35" fill="none" stroke="#93c5fd" stroke-width="2.5" d="M 783 416 L 783 440 L 800 452 L 819 442 L 819 414 L 800 404 Z"/>
        <path id="path36" fill="#fde68a" stroke="none" d="M 787 416 C 787 418.209137 785.209106 420 783 420 C 780.790894 420 779 418.209137 779 416 C 779 413.790863 780.790894 412 783 412 C 785.209106 412 787 413.790863 787 416 Z"/>
        <path id="path37" fill="#fde68a" stroke="none" d="M 804 404 C 804 406.209137 802.209106 408 800 408 C 797.790894 408 796 406.209137 796 404 C 796 401.790863 797.790894 400 800 400 C 802.209106 400 804 401.790863 804 404 Z"/>
        <path id="path39" fill="#fde68a" stroke="none" d="M 823 414 C 823 416.209137 821.209106 418 819 418 C 816.790894 418 815 416.209137 815 414 C 815 411.790863 816.790894 410 819 410 C 821.209106 410 823 411.790863 823 414 Z"/>
        <path id="path40" fill="#fde68a" stroke="none" d="M 804 452 C 804 454.209137 802.209106 456 800 456 C 797.790894 456 796 454.209137 796 452 C 796 449.790863 797.790894 448 800 448 C 802.209106 448 804 449.790863 804 452 Z"/>
        <path id="path41" fill="#fde68a" stroke="none" d="M 823 442 C 823 444.209137 821.209106 446 819 446 C 816.790894 446 815 444.209137 815 442 C 815 439.790863 816.790894 438 819 438 C 821.209106 438 823 439.790863 823 442 Z"/>
        <text id="Model-Led-Understanding" xml:space="preserve" x="671" y="523" font-family="Helvetica" font-size="22" fill="#e2e8f0">Model-Led Understanding</text>
    </g>
    <path id="path38" fill="#0f172a" stroke="#334155" stroke-width="2" d="M 229.663818 690 L 1369.336182 690 C 1386.271362 690 1400 700.745178 1400 714 L 1400 758 C 1400 771.254822 1386.271362 782 1369.336182 782 L 229.663818 782 C 212.728683 782 199 771.254822 199 758 L 199 714 C 199 700.745178 212.728683 690 229.663818 690 Z"/>
    <text id="Let-scripts-handle-the" xml:space="preserve" x="235" y="748" font-family="American Typewriter" font-size="30" fill="#f8fafc">Let scripts handle the repetitive work. Save your attention for actual thinking.</text>
</svg>
